<svg width="762" height="106" viewBox="0 0 762 106" fill="none" xmlns="http://www.w3.org/2000/svg">
<g id="Frame 1" clip-path="url(#clip0_4_11)">
<rect width="762" height="106" transform="matrix(-1 0 0 1 762 0)" fill="white" fill-opacity="0.05"/>
<g id="SL-vector">
<path d="M94.7778 4.76976C93.628 4.43618 93.2994 4.13987 93.2994 3.43615V2.53158H135.313L135.312 3.41876C135.311 4.13418 134.838 4.50432 132.865 5.33153C128.353 7.22299 125.37 10.7728 124.227 15.6097C123.987 16.6267 123.815 34.3962 123.815 58.1713V98.9872L128.348 98.7622C136.3 98.3672 140.719 97.0134 145.168 93.6084C148.994 90.6804 150.618 88.7403 154.551 82.4023C157.355 77.8826 158.272 76.6998 158.973 76.6998C159.674 76.6998 159.886 76.9727 159.994 78.0143C160.173 79.7503 156.331 101.084 155.389 103.581C155.169 104.165 153.298 104.202 124.227 104.202H93.2994L93.3052 103.227C93.3105 102.382 93.6811 102.108 96.0692 101.186C99.0774 100.025 101.274 98.0791 102.189 95.7653C102.566 94.8136 102.837 83.8611 103.157 56.6496C103.642 15.4163 103.583 13.8786 101.38 10.2692C99.9712 7.96005 96.8701 5.37695 94.7778 4.76976Z" fill="black"/>
<path d="M27.8469 4.02664C31.1111 2.51098 37.4825 0.767494 41.6308 0.255413C45.9688 -0.280443 57.0462 0.0726529 61.486 0.888504C68.7804 2.22886 75.7418 4.85491 79.2546 7.59097C81.7396 9.52715 82.4693 11.4179 82.4374 15.8393C82.4074 19.9909 81.675 22.0165 79.0374 25.2434C77.8341 26.7157 77.3627 27.0177 76.2685 27.0177C75.0577 27.0177 74.9188 26.8875 74.5667 25.4208C71.2999 11.821 65.6347 5.56571 55.2662 4.10967C46.6755 2.90347 37.4149 6.42841 34.0401 12.1894C30.783 17.7495 32.5033 24.0148 38.7469 29.3294C42.7696 32.7535 46.5805 35.0304 57.6986 40.6537C75.7476 49.7817 82.1725 54.5686 86.3898 62.0294C88.9672 66.5888 89.5076 68.6928 89.5187 74.2157C89.5302 80.042 88.8859 82.4693 86.0316 87.346C82.0779 94.1017 75.0046 99.4283 65.9774 102.448C40.2859 111.043 8.79129 103.362 1.39735 86.6987C-0.108502 83.3051 -0.454345 77.9174 0.639775 74.8978C3.49625 67.0125 11.7592 61.9691 21.8124 61.9748C27.5103 61.9776 30.5424 63.0195 31.1752 65.1913C31.4123 66.0054 31.1376 66.2605 28.6128 67.5707C21.9972 71.0038 18.5773 75.9659 18.5649 82.1492C18.5468 91.0682 26.0761 98.802 37.1341 101.223C41.4583 102.169 49.2547 102.112 53.2761 101.104C62.5483 98.781 68.8945 93.0101 70.5494 85.3974C72.8292 74.9109 65.7364 66.8003 45.623 56.8955C31.919 50.1469 26.4661 47.0825 22.5712 43.9412C16.3586 38.9304 13.3624 33.4384 12.9303 26.2714C12.634 21.3579 13.4574 18.0753 16.0149 13.9755C18.2036 10.4669 23.416 6.08419 27.8469 4.02664Z" fill="black"/>
</g>
<g id="Full_name-vector">
<path fill-rule="evenodd" clip-rule="evenodd" d="M715.578 42.1474C708.308 44.463 700.257 52.1476 700.257 56.7715C700.257 58.8242 704.331 61.2722 707.747 61.2722C711.513 61.2722 711.352 61.4654 714.692 52.9803C716.578 48.189 719.884 46.0675 725.466 46.0675C732.634 46.0675 736.107 51.6726 736.107 63.2416V68.8906L727.671 70.8976C714.937 73.9278 708.984 76.1682 704.489 79.6241C697.097 85.3071 695.296 94.3682 700.304 100.684C706.436 108.419 722.358 107.595 733.285 98.9796L736.804 96.2035L737.978 99.7238C738.624 101.66 740.136 103.862 741.337 104.618C745.735 107.385 754.171 105.847 759.758 101.26C762.484 99.02 762.813 96.5488 760.255 97.5147C752.049 100.613 751.654 99.6854 750.948 75.6719C750.559 62.4805 749.901 54.371 749.052 52.3283C745.425 43.5945 740.075 40.6681 727.931 40.7719C723.39 40.8103 717.832 41.4301 715.578 42.1474Z" fill="black"/>
<path fill-rule="evenodd" clip-rule="evenodd" d="M577.76 44.6902C570.693 46.7712 567.07 48.2785 567.07 49.1379C567.07 49.932 568.053 50.4365 569.601 50.4365C570.993 50.4365 573.23 51.4268 574.573 52.6367L577.014 54.8359L576.956 73.9211C576.926 84.4172 576.583 94.6184 576.197 96.5901C575.567 99.8056 575.061 100.31 571.282 101.491C568.452 102.376 567.07 103.332 567.07 104.404C567.07 105.87 568.406 106 583.478 106C598.909 106 599.886 105.899 599.886 104.304C599.886 103.202 598.93 102.395 597.151 101.994C590.983 100.607 590.934 100.427 590.958 79.1996C590.983 56.9187 591.789 53.7695 598.169 51.0406C602.257 49.293 610.584 49.0717 614.333 50.6113C619.669 52.8025 620.243 55.2778 620.588 77.6322C620.946 100.742 620.856 101.056 613.593 102.102C610.762 102.51 609.818 103.043 610.045 104.105C610.311 105.357 612.605 105.585 626.997 105.797C642.828 106.031 643.641 105.96 643.641 104.327C643.641 103.2 642.7 102.398 640.906 101.994C634.699 100.599 634.691 100.569 634.691 77.8311C634.691 54.6567 634.728 54.516 641.678 51.3211C646.445 49.129 655.157 48.9291 658.341 50.9393C663.247 54.0356 663.844 56.7009 664.252 77.3221C664.678 98.8744 664.368 100.217 658.557 101.972C656.643 102.551 655.077 103.592 655.077 104.287C655.077 105.316 658.187 105.598 671.733 105.797C687.577 106.031 688.39 105.96 688.39 104.327C688.39 103.198 687.453 102.402 685.655 102.004C684.151 101.67 681.913 100.811 680.683 100.093C678.473 98.8045 678.446 98.5482 678.422 78.4217C678.395 56.3415 677.699 51.6249 673.783 46.9988C669.998 42.5268 665.582 41.1996 655.991 41.654C646.839 42.0868 641.28 44.3828 635.822 49.9858C634.106 51.7468 632.702 52.7075 632.702 52.1204C632.702 50.3702 627.727 45.0317 624.383 43.1945C622.043 41.9085 619.395 41.4809 613.754 41.4783C605.156 41.4738 597.817 44.1005 593.498 48.7266L591.04 51.3578L590.74 46.7111C590.574 44.1552 589.991 41.9461 589.444 41.8027C588.897 41.6584 583.64 42.9579 577.76 44.6902Z" fill="black"/>
<path fill-rule="evenodd" clip-rule="evenodd" d="M511.017 42.1474C503.235 44.463 494.618 52.1476 494.618 56.7715C494.618 58.8242 498.978 61.2722 502.635 61.2722C506.666 61.2722 506.493 61.4654 510.069 52.9803C512.087 48.189 515.626 46.0675 521.602 46.0675C529.275 46.0675 532.992 51.6726 532.992 63.2416V68.8906L523.962 70.8976C510.331 73.9278 503.959 76.1682 499.147 79.6241C491.234 85.3071 489.307 94.3682 494.668 100.684C501.232 108.419 518.274 107.595 529.971 98.9796L533.738 96.2035L534.995 99.7238C535.686 101.66 537.305 103.862 538.59 104.618C543.298 107.385 552.328 105.847 558.308 101.26C561.227 99.02 561.578 96.5487 558.841 97.5147C550.057 100.613 549.633 99.6854 548.878 75.6719C548.462 62.4805 547.757 54.371 546.849 52.3283C542.966 43.5945 537.24 40.6681 524.24 40.7719C519.38 40.8103 513.43 41.4301 511.017 42.1474Z" fill="black"/>
<path d="M415.515 6.13559C414.292 5.80235 413.943 5.50633 413.943 4.80333V3.89967H458.618L458.617 4.78595C458.616 5.50065 458.113 5.87042 456.015 6.69679C451.218 8.58636 448.046 12.1326 446.83 16.9646C446.575 17.9806 446.391 35.7323 446.391 59.4834V100.258L451.211 100.033C459.668 99.6389 464.367 98.2864 469.098 94.8849C473.166 91.9598 474.893 90.0216 479.075 83.69C482.056 79.1749 483.032 77.9933 483.778 77.9933C484.523 77.9933 484.748 78.2659 484.863 79.3064C485.054 81.0407 480.968 102.353 479.966 104.848C479.732 105.431 477.743 105.468 446.83 105.468H413.943L413.949 104.493C413.954 103.649 414.349 103.376 416.888 102.455C420.087 101.295 422.423 99.351 423.396 97.0396C423.797 96.0888 424.085 85.1474 424.425 57.9632C424.94 16.7714 424.878 15.2353 422.535 11.6295C421.037 9.32268 417.74 6.74217 415.515 6.13559Z" fill="black"/>
<path fill-rule="evenodd" clip-rule="evenodd" d="M348.918 44.8829C338.471 47.9252 336.55 49.608 342.063 50.888C347.868 52.2359 347.921 52.47 347.921 76.9882V99.4063L343.435 101.433C335.45 105.04 337.209 105.635 356.644 105.903C373.445 106.134 374.34 106.061 374.34 104.454C374.34 103.175 373.383 102.624 370.423 102.199C368.269 101.891 365.847 101.048 365.042 100.326C362.841 98.355 362.094 89.6872 362.861 75.0347C363.634 60.266 365.335 55.2835 370.405 52.9344C374.626 50.9782 376.868 51.3087 380.904 54.4842L384.548 57.3505L387.419 54.4707C391.119 50.7612 391.286 46.5147 387.848 43.6207C385.751 41.8557 384.632 41.6217 379.945 41.97C372.925 42.4917 368.01 45.7278 364.771 51.9608L362.397 56.5314L362.387 49.1623C362.375 40.4444 363.227 40.7151 348.918 44.8829Z" fill="black"/>
<path fill-rule="evenodd" clip-rule="evenodd" d="M304.455 18.9262C301.808 21.093 301.256 22.1989 301.256 25.3433C301.256 34.4223 315.403 37.9136 319.9 29.9451C323.718 23.1802 319.053 16.3077 310.643 16.3077C308.736 16.3077 306.493 17.2564 304.455 18.9262Z" fill="black"/>
<path fill-rule="evenodd" clip-rule="evenodd" d="M308.666 44.7606C300.692 46.9023 298.53 47.8247 298.53 49.0851C298.53 50.2912 299.442 50.7559 302.215 50.9647C308.072 51.4044 308.387 52.7059 308.404 76.4999C308.413 88.9089 308.014 97.9808 307.414 98.9915C306.861 99.9237 304.617 101.17 302.429 101.761C299.691 102.502 298.543 103.277 298.749 104.246C299.006 105.452 301.443 105.691 315.602 105.899C331.527 106.135 332.154 106.077 332.154 104.379C332.154 103.072 331.266 102.463 328.728 102.034C326.843 101.715 324.73 100.833 324.031 100.074C323.078 99.0406 322.634 91.6198 322.264 70.5189C321.84 46.3591 321.558 42.3218 320.286 42.1916C319.471 42.1077 314.242 43.2637 308.666 44.7606Z" fill="black"/>
<path fill-rule="evenodd" clip-rule="evenodd" d="M178.812 44.6902C171.745 46.7712 168.122 48.2785 168.122 49.1379C168.122 49.932 169.105 50.4365 170.652 50.4365C172.045 50.4365 174.282 51.4268 175.625 52.6367L178.066 54.8359L178.008 73.9211C177.977 84.4172 177.635 94.6184 177.248 96.5901C176.619 99.8056 176.113 100.31 172.334 101.491C169.504 102.376 168.122 103.332 168.122 104.404C168.122 105.87 169.458 106 184.53 106C199.961 106 200.938 105.899 200.938 104.304C200.938 103.202 199.982 102.395 198.203 101.994C192.035 100.607 191.986 100.427 192.01 79.1996C192.035 56.9187 192.841 53.7695 199.221 51.0406C203.308 49.293 211.636 49.0717 215.385 50.6113C220.721 52.8025 221.295 55.2778 221.64 77.6322C221.998 100.742 221.908 101.056 214.645 102.102C211.814 102.51 210.87 103.043 211.097 104.105C211.363 105.357 213.656 105.585 228.049 105.797C243.88 106.031 244.693 105.96 244.693 104.327C244.693 103.2 243.752 102.398 241.958 101.994C235.751 100.599 235.743 100.569 235.743 77.8311C235.743 54.6567 235.78 54.516 242.73 51.3211C247.497 49.129 256.209 48.9291 259.393 50.9393C264.299 54.0356 264.896 56.7009 265.304 77.3221C265.73 98.8744 265.419 100.217 259.609 101.972C257.695 102.551 256.128 103.592 256.128 104.287C256.128 105.316 259.239 105.598 272.785 105.797C288.629 106.031 289.442 105.96 289.442 104.327C289.442 103.198 288.505 102.402 286.707 102.004C285.203 101.67 282.965 100.811 281.735 100.093C279.524 98.8045 279.498 98.5482 279.474 78.4217C279.447 56.3415 278.751 51.6249 274.835 46.9988C271.05 42.5268 266.634 41.1996 257.043 41.654C247.891 42.0868 242.332 44.3828 236.873 49.9858C235.158 51.7468 233.754 52.7075 233.754 52.1204C233.754 50.3702 228.779 45.0317 225.434 43.1945C223.095 41.9085 220.446 41.4809 214.806 41.4783C206.208 41.4738 198.869 44.1005 194.55 48.7266L192.092 51.3578L191.792 46.7111C191.626 44.1552 191.043 41.9461 190.496 41.8027C189.949 41.6584 184.692 42.9579 178.812 44.6902Z" fill="black"/>
<path fill-rule="evenodd" clip-rule="evenodd" d="M117.067 42.1474C109.285 44.463 100.668 52.1476 100.668 56.7715C100.668 58.8242 105.029 61.2722 108.685 61.2722C112.716 61.2722 112.543 61.4654 116.119 52.9803C118.138 48.189 121.676 46.0675 127.652 46.0675C135.325 46.0675 139.042 51.6726 139.042 63.2416V68.8906L130.012 70.8976C116.381 73.9278 110.009 76.1682 105.197 79.6241C97.2844 85.3071 95.3572 94.3682 100.718 100.684C107.282 108.419 124.324 107.595 136.021 98.9796L139.788 96.2035L141.045 99.7238C141.737 101.66 143.355 103.862 144.64 104.618C149.348 107.385 158.378 105.847 164.358 101.26C167.277 99.02 167.628 96.5487 164.891 97.5147C156.107 100.613 155.683 99.6854 154.928 75.6719C154.512 62.4805 153.807 54.371 152.899 52.3283C149.016 43.5945 143.29 40.6681 130.29 40.7719C125.43 40.8103 119.48 41.4301 117.067 42.1474Z" fill="black"/>
<path d="M29.6112 4.02259C33.0822 2.50846 39.8574 0.766721 44.2685 0.255156C48.8813 -0.280161 60.6606 0.0725798 65.3816 0.88761C73.1382 2.22661 80.5407 4.85002 84.276 7.58333C86.9185 9.51757 87.6944 11.4064 87.6606 15.8233C87.6286 19.9708 86.8498 21.9944 84.0451 25.218C82.7655 26.6889 82.2642 26.9906 81.1008 26.9906C79.8132 26.9906 79.6655 26.8604 79.2912 25.3952C75.8173 11.8092 69.7932 5.56012 58.7678 4.10554C49.6328 2.90054 39.7854 6.42194 36.1968 12.1771C32.7333 17.7317 34.5626 23.9906 41.2019 29.2999C45.4794 32.7206 49.5317 34.9951 61.3543 40.6128C80.5468 49.7316 87.3789 54.5137 91.8633 61.967C94.6041 66.5218 95.1787 68.6237 95.1905 74.141C95.2027 79.9615 94.5176 82.3864 91.4825 87.2581C87.2783 94.007 79.7568 99.3283 70.1577 102.345C42.8384 110.931 9.34829 103.258 1.48589 86.6115C-0.115376 83.2212 -0.483132 77.839 0.680311 74.8224C3.71777 66.9451 12.5043 61.9067 23.1944 61.9124C29.2533 61.9152 32.4775 62.9561 33.1504 65.1257C33.4025 65.939 33.1104 66.1939 30.4257 67.5028C23.3909 70.9323 19.7544 75.8895 19.7412 82.0666C19.7219 90.9766 27.7282 98.7026 39.4868 101.121C44.0851 102.066 52.3754 102.009 56.6516 101.003C66.5112 98.6816 73.2595 92.9165 75.0193 85.3114C77.4435 74.8355 69.9014 66.7331 48.5136 56.8382C33.9414 50.0964 28.143 47.0352 24.0013 43.897C17.395 38.8913 14.209 33.4048 13.7495 26.245C13.4344 21.3364 14.3101 18.0571 17.0296 13.9614C19.357 10.4563 24.8996 6.07807 29.6112 4.02259Z" fill="black"/>
</g>
</g>
<defs>
<clipPath id="clip0_4_11">
<rect width="762" height="106" fill="white" transform="matrix(-1 0 0 1 762 0)"/>
</clipPath>
</defs>
</svg>
