<svg width="1200" height="630" viewBox="0 0 1200 630" xmlns="http://www.w3.org/2000/svg">

  <defs>
    <linearGradient id="grad1" x1="0%" y1="0%" x2="100%" y2="100%">
      <stop offset="0%" style="stop-color:#1A1A3D;stop-opacity:1" />
      <stop offset="100%" style="stop-color:#00C4B4;stop-opacity:1" />
    </linearGradient>

    <filter id="shadow" x="-50%" y="-50%" width="200%" height="200%">
      <feGaussianBlur in="SourceAlpha" stdDeviation="10" />
      <feOffset dx="5" dy="5" result="offsetblur" />
      <feComponentTransfer>
        <feFuncA type="linear" slope="0.5" />
      </feComponentTransfer>
      <feMerge>
        <feMergeNode />
        <feMergeNode in="SourceGraphic" />
      </feMerge>
    </filter>
  </defs>

  <rect width="1200" height="630" fill="url(#grad1)" />

  <g opacity="0.2">
    <path d="M100 50 L130 65 L130 95 L100 110 L70 95 L70 65 Z" fill="#FFFFFF" />
    <path d="M200 50 L230 65 L230 95 L200 110 L170 95 L170 65 Z" fill="#FFFFFF" />
    <path d="M150 120 L180 135 L180 165 L150 180 L120 165 L120 135 Z" fill="#FFFFFF" />
  </g>
  <g filter="url(#shadow)">
    <path d="M500 250 H700 V400 H500 Z" fill="#FFFFFF" />
    <path d="M450 400 H750 V450 H450 Z" fill="#E2E8F0" />
    <path d="M550 280 H650 V360 H550 Z" fill="#00D4FF" />
  </g>
  <path d="M200 500 L220 480 L240 500 L240 520 L220 500 L200 520 Z M260 480 L280 480 L280 520 L260 520 Z M300 480 L320 500 L300 520 Z" fill="#00D4FF" />
</svg>
