<svg width="762" height="106" viewBox="0 0 762 106" fill="none" xmlns="http://www.w3.org/2000/svg">
<mask id="path-1-inside-1_4_12" fill="white">
<path fill-rule="evenodd" clip-rule="evenodd" d="M22.2086 1.39899C13.2866 4.22099 7.43558 9.17999 4.05358 16.787C1.48658 22.563 1.77461 34.335 4.62761 40.238C7.84261 46.89 11.9616 50.11 26.7086 57.5C33.7906 61.049 41.1586 65.334 43.0816 67.023C52.5956 75.376 51.1566 90.539 40.2716 96.645C27.4356 103.845 12.7316 97.496 6.80663 82.195C5.48563 78.784 3.77864 75.473 3.01464 74.839C0.156635 72.467 -0.448406 75.369 0.284594 87.91C1.10259 101.899 0.458632 101.041 11.9366 103.412C22.7786 105.652 33.9936 105.465 42.2776 102.906C47.8916 101.172 50.0206 99.841 54.6716 95.156C60.9946 88.787 62.7116 84.559 62.7026 75.384C62.6896 61.36 58.1856 55.95 37.9626 45.667C18.7656 35.905 15.7086 32.75 15.7086 22.698C15.7086 13.823 22.0196 6.82599 31.2756 5.43799C41.6746 3.87799 46.5916 7.14704 51.2806 18.738C53.7586 24.864 54.5746 25.977 56.5896 25.988L58.9706 26L58.5026 15.462C58.2446 9.66704 57.5506 4.44199 56.9606 3.85199C53.5516 0.44299 30.3986 -1.19101 22.2086 1.39899ZM287.498 2.89801C284.814 5.29601 284.254 6.52 284.254 10C284.254 20.048 298.601 23.912 303.161 15.093C307.033 7.60602 302.302 0 293.774 0C291.84 0 289.565 1.05001 287.498 2.89801ZM93.0936 33.617C85.7926 36.206 77.7086 44.798 77.7086 49.968C77.7086 52.263 81.7996 55 85.2296 55C89.0116 55 88.8496 55.216 92.2036 45.729C94.0976 40.372 97.4176 38 103.024 38C110.222 38 113.709 44.267 113.709 57.202V63.518L105.238 65.762C92.4496 69.15 86.4716 71.655 81.9576 75.519C74.5346 81.873 72.7266 92.004 77.7556 99.066C83.9136 107.714 99.9016 106.793 110.875 97.16L114.409 94.056L115.588 97.992C116.237 100.157 117.755 102.619 118.961 103.464C123.378 106.558 131.849 104.838 137.459 99.709C140.197 97.205 140.527 94.442 137.959 95.522C129.718 98.986 129.321 97.949 128.612 71.1C128.222 56.351 127.561 47.284 126.709 45C123.066 35.235 117.694 31.963 105.499 32.079C100.939 32.122 95.3566 32.815 93.0936 33.617ZM157.459 35.588C150.353 37.91 146.709 39.592 146.709 40.551C146.709 41.437 147.698 42 149.254 42C150.654 42 152.904 43.105 154.254 44.455L156.709 46.909L156.651 68.205C156.62 79.917 156.276 91.3 155.887 93.5C155.254 97.088 154.745 97.651 150.945 98.969C148.099 99.956 146.709 101.023 146.709 102.219C146.709 103.855 148.053 104 163.209 104C178.727 104 179.709 103.887 179.709 102.108C179.709 100.878 178.748 99.977 176.959 99.53C170.756 97.982 170.707 97.781 170.731 74.095C170.756 49.233 171.567 45.719 177.983 42.674C182.093 40.724 190.467 40.477 194.237 42.195C199.603 44.64 200.18 47.402 200.527 72.346C200.887 98.133 200.797 98.483 193.493 99.651C190.646 100.106 189.697 100.7 189.925 101.885C190.193 103.282 192.499 103.537 206.972 103.774C222.892 104.035 223.709 103.955 223.709 102.133C223.709 100.876 222.763 99.981 220.959 99.53C214.717 97.973 214.709 97.94 214.709 72.568C214.709 46.709 214.746 46.552 221.735 42.987C226.529 40.541 235.29 40.318 238.492 42.561C243.425 46.016 244.026 48.99 244.436 72C244.864 96.049 244.552 97.547 238.709 99.505C236.784 100.151 235.209 101.313 235.209 102.089C235.209 103.237 238.337 103.551 251.959 103.774C267.892 104.035 268.709 103.955 268.709 102.133C268.709 100.873 267.767 99.985 265.959 99.541C264.446 99.169 262.196 98.21 260.959 97.409C258.736 95.971 258.709 95.685 258.685 73.227C258.658 48.589 257.958 43.326 254.02 38.164C250.214 33.174 245.773 31.693 236.129 32.2C226.925 32.683 221.335 35.245 215.846 41.497C214.121 43.462 212.709 44.534 212.709 43.879C212.709 41.926 207.706 35.969 204.343 33.919C201.99 32.484 199.327 32.007 193.655 32.004C185.009 31.999 177.629 34.93 173.285 40.092L170.814 43.028L170.512 37.843C170.345 34.991 169.759 32.526 169.209 32.366C168.659 32.205 163.372 33.655 157.459 35.588ZM288.959 35.235C280.896 37.636 278.709 38.67 278.709 40.083C278.709 41.435 279.632 41.956 282.436 42.19C288.358 42.683 288.677 44.142 288.694 70.816C288.703 84.727 288.299 94.897 287.693 96.03C287.134 97.075 284.865 98.472 282.652 99.135C279.883 99.965 278.723 100.834 278.931 101.92C279.191 103.272 281.655 103.54 295.972 103.774C312.075 104.038 312.709 103.973 312.709 102.069C312.709 100.604 311.811 99.922 309.245 99.441C307.339 99.083 305.202 98.094 304.495 97.243C303.532 96.085 303.083 87.766 302.709 64.111C302.28 37.027 301.995 32.501 300.709 32.355C299.884 32.261 294.597 33.557 288.959 35.235ZM330.209 35.459C319.73 38.865 317.803 40.749 323.333 42.182C329.156 43.691 329.209 43.953 329.209 71.402V96.5L324.709 98.769C316.7 102.807 318.464 103.473 337.959 103.773C354.811 104.032 355.709 103.95 355.709 102.151C355.709 100.719 354.749 100.102 351.78 99.627C349.619 99.282 347.19 98.338 346.382 97.53C344.175 95.323 343.425 85.619 344.195 69.215C344.97 52.681 346.676 47.103 351.762 44.473C355.996 42.283 358.245 42.653 362.293 46.208L365.948 49.417L368.828 46.193C372.539 42.04 372.707 37.286 369.258 34.046C367.155 32.07 366.032 31.808 361.331 32.198C354.29 32.782 349.36 36.405 346.111 43.383L343.729 48.5L343.719 40.25C343.707 30.49 344.562 30.793 330.209 35.459ZM114.707 76.75C114.706 85.869 112.891 90.336 107.811 93.73C102.588 97.219 97.3236 96.815 93.1086 92.6C90.4836 89.975 89.7086 88.368 89.7086 85.55C89.7086 78.025 93.2236 74.589 104.709 70.882C114.565 67.702 114.709 67.787 114.707 76.75ZM408.376 3.66699C408.009 4.03299 407.709 5.15799 407.709 6.16699C407.709 7.58399 408.478 8 411.098 8C412.962 8 415.55 8.86001 416.848 9.91101L419.209 11.822L419.49 53.261C419.81 100.306 420.087 98.603 411.949 99.695C408.316 100.182 407.709 100.602 407.709 102.632V105H442.674C474.968 105 477.707 104.866 478.529 103.25C479.989 100.379 483.938 80.04 483.339 78.478C482.5 76.291 480.231 77.682 478.41 81.5C476.062 86.426 469.982 92.809 465.277 95.29C461.886 97.078 459.082 97.498 448.428 97.818L435.647 98.202L435.928 55.012L436.209 11.822L438.57 9.91101C439.964 8.78301 442.48 8 444.713 8C448.415 8 450.496 6.08297 449.153 3.90997C448.514 2.87597 409.4 2.64299 408.376 3.66699ZM513.384 34.622C510.093 35.633 506.813 37.795 503.066 41.425C498.034 46.298 497.6 47.07 497.891 50.615C498.145 53.708 498.769 54.753 500.994 55.814C505.937 58.172 508.684 56.348 510.858 49.264C512.064 45.336 513.691 42.373 515.362 41.058C518.793 38.36 524.623 38.358 528.052 41.055C531.263 43.581 533.709 51.314 533.709 58.941V64.518L525.238 66.762C507.688 71.412 499.122 76.375 496.079 83.657C492.993 91.042 495.369 99.549 501.709 103.815C504.741 105.855 506.146 106.12 512.209 105.794C520.004 105.374 524.529 103.558 530.484 98.461L534.469 95.05L535.104 98.227C536.123 103.321 539.335 106 544.423 106C551.598 106 561.679 99.57 558.885 96.776C557.984 95.875 557.429 95.88 556.509 96.8C554.716 98.593 552.249 98.254 550.14 95.924C548.457 94.064 548.2 91.475 547.685 71.174C547.085 47.564 546.398 43.688 541.921 38.645C537.141 33.263 523.888 31.394 513.384 34.622ZM577.709 36.125C572.484 37.775 567.647 39.308 566.959 39.531C564.184 40.433 565.83 42.764 569.677 43.379C572.108 43.768 574.046 44.76 574.677 45.941C575.306 47.115 575.709 57.461 575.709 72.411C575.709 96.765 575.692 96.965 573.459 98.409C572.222 99.21 569.949 100.174 568.409 100.553C566.553 101.01 565.715 101.791 565.923 102.871C566.197 104.298 568.283 104.5 582.723 104.5C598.542 104.5 599.209 104.419 599.209 102.5C599.209 101.124 598.429 100.393 596.709 100.159C590.867 99.362 590.709 98.693 590.709 74.813C590.709 49.118 591.195 47.043 597.921 43.99C604.192 41.144 610.809 41.372 614.603 44.564C616.279 45.975 618.111 48.787 618.674 50.814C619.237 52.841 619.7 63.737 619.703 75.027C619.71 97.665 619.343 99.223 613.745 100.343C611.563 100.779 610.709 101.52 610.709 102.975C610.709 104.927 611.308 105 627.209 105C642.57 105 643.709 104.873 643.709 103.158C643.709 101.877 642.496 100.953 639.725 100.123C637.534 99.467 635.284 98.075 634.725 97.03C634.128 95.914 633.711 86.35 633.713 73.816C633.716 54.204 633.878 52.235 635.733 49.192C640.907 40.706 656.574 39.532 661.26 47.279C663.007 50.166 663.242 52.802 663.527 72.688C663.737 87.317 663.476 95.567 662.761 96.903C662.164 98.018 659.865 99.472 657.652 100.135C654.882 100.965 653.723 101.833 653.932 102.92C654.195 104.284 656.493 104.5 670.709 104.5C684.925 104.5 687.223 104.284 687.486 102.92C687.695 101.835 686.54 100.966 683.791 100.143C681.592 99.484 679.437 98.395 679.001 97.722C678.565 97.05 677.984 85.25 677.709 71.5C677.222 47.157 677.143 46.382 674.709 42C671.291 35.847 665.579 32.992 656.747 33.022C648.53 33.05 642.844 35.499 636.459 41.764C633.199 44.963 631.709 45.899 631.709 44.747C631.709 42.297 625.755 35.917 622.007 34.351C613.07 30.617 599.067 34.103 592.888 41.599L589.709 45.456V39.228C589.709 34.879 589.332 33.019 588.459 33.062C587.772 33.096 582.934 34.474 577.709 36.125ZM717.709 33.935C708.732 36.676 699.709 44.694 699.709 49.931C699.709 57.679 710.618 59.315 712.238 51.81C713.363 46.603 716.298 41.558 719.064 40.078C722.618 38.176 728.682 39.326 731.365 42.412C733.818 45.235 735.709 52.84 735.709 59.887V64.675L727.459 66.734C710.052 71.078 702.13 75.662 698.602 83.429C696.246 88.617 696.264 92.424 698.673 97.729C701.257 103.423 705.641 105.991 712.781 105.996C720.321 106.001 726.691 103.648 732.154 98.84C736.477 95.034 736.709 94.95 736.709 97.193C736.709 99.514 739.071 103.79 741.151 105.235C743.01 106.525 750.795 106.053 754.186 104.444C758.763 102.272 762.383 98.274 761.014 96.905C760.255 96.146 759.329 96.22 757.823 97.161C756.248 98.144 755.252 98.204 753.956 97.395C750.265 95.09 749.739 92.031 749.724 72.799C749.716 62.514 749.225 51.843 748.634 49.086C746.28 38.108 739.369 32.938 727.247 33.086C723.376 33.133 719.084 33.515 717.709 33.935ZM533.709 79.365C533.709 87.348 533.401 89.122 531.621 91.385C528.747 95.038 524.576 97 519.682 97C516.417 97 514.92 96.364 512.512 93.957C509.697 91.142 509.503 90.498 509.926 85.392C510.514 78.312 513.197 75.508 522.378 72.379C533.849 68.471 533.709 68.384 533.709 79.365ZM735.709 79.365C735.709 87.348 735.401 89.122 733.621 91.385C726.258 100.745 711.709 97.916 711.709 87.124C711.709 79.214 715.326 75.507 726.545 71.919C736.016 68.89 735.709 68.64 735.709 79.365Z"/>
</mask>
<path fill-rule="evenodd" clip-rule="evenodd" d="M22.2086 1.39899C13.2866 4.22099 7.43558 9.17999 4.05358 16.787C1.48658 22.563 1.77461 34.335 4.62761 40.238C7.84261 46.89 11.9616 50.11 26.7086 57.5C33.7906 61.049 41.1586 65.334 43.0816 67.023C52.5956 75.376 51.1566 90.539 40.2716 96.645C27.4356 103.845 12.7316 97.496 6.80663 82.195C5.48563 78.784 3.77864 75.473 3.01464 74.839C0.156635 72.467 -0.448406 75.369 0.284594 87.91C1.10259 101.899 0.458632 101.041 11.9366 103.412C22.7786 105.652 33.9936 105.465 42.2776 102.906C47.8916 101.172 50.0206 99.841 54.6716 95.156C60.9946 88.787 62.7116 84.559 62.7026 75.384C62.6896 61.36 58.1856 55.95 37.9626 45.667C18.7656 35.905 15.7086 32.75 15.7086 22.698C15.7086 13.823 22.0196 6.82599 31.2756 5.43799C41.6746 3.87799 46.5916 7.14704 51.2806 18.738C53.7586 24.864 54.5746 25.977 56.5896 25.988L58.9706 26L58.5026 15.462C58.2446 9.66704 57.5506 4.44199 56.9606 3.85199C53.5516 0.44299 30.3986 -1.19101 22.2086 1.39899ZM287.498 2.89801C284.814 5.29601 284.254 6.52 284.254 10C284.254 20.048 298.601 23.912 303.161 15.093C307.033 7.60602 302.302 0 293.774 0C291.84 0 289.565 1.05001 287.498 2.89801ZM93.0936 33.617C85.7926 36.206 77.7086 44.798 77.7086 49.968C77.7086 52.263 81.7996 55 85.2296 55C89.0116 55 88.8496 55.216 92.2036 45.729C94.0976 40.372 97.4176 38 103.024 38C110.222 38 113.709 44.267 113.709 57.202V63.518L105.238 65.762C92.4496 69.15 86.4716 71.655 81.9576 75.519C74.5346 81.873 72.7266 92.004 77.7556 99.066C83.9136 107.714 99.9016 106.793 110.875 97.16L114.409 94.056L115.588 97.992C116.237 100.157 117.755 102.619 118.961 103.464C123.378 106.558 131.849 104.838 137.459 99.709C140.197 97.205 140.527 94.442 137.959 95.522C129.718 98.986 129.321 97.949 128.612 71.1C128.222 56.351 127.561 47.284 126.709 45C123.066 35.235 117.694 31.963 105.499 32.079C100.939 32.122 95.3566 32.815 93.0936 33.617ZM157.459 35.588C150.353 37.91 146.709 39.592 146.709 40.551C146.709 41.437 147.698 42 149.254 42C150.654 42 152.904 43.105 154.254 44.455L156.709 46.909L156.651 68.205C156.62 79.917 156.276 91.3 155.887 93.5C155.254 97.088 154.745 97.651 150.945 98.969C148.099 99.956 146.709 101.023 146.709 102.219C146.709 103.855 148.053 104 163.209 104C178.727 104 179.709 103.887 179.709 102.108C179.709 100.878 178.748 99.977 176.959 99.53C170.756 97.982 170.707 97.781 170.731 74.095C170.756 49.233 171.567 45.719 177.983 42.674C182.093 40.724 190.467 40.477 194.237 42.195C199.603 44.64 200.18 47.402 200.527 72.346C200.887 98.133 200.797 98.483 193.493 99.651C190.646 100.106 189.697 100.7 189.925 101.885C190.193 103.282 192.499 103.537 206.972 103.774C222.892 104.035 223.709 103.955 223.709 102.133C223.709 100.876 222.763 99.981 220.959 99.53C214.717 97.973 214.709 97.94 214.709 72.568C214.709 46.709 214.746 46.552 221.735 42.987C226.529 40.541 235.29 40.318 238.492 42.561C243.425 46.016 244.026 48.99 244.436 72C244.864 96.049 244.552 97.547 238.709 99.505C236.784 100.151 235.209 101.313 235.209 102.089C235.209 103.237 238.337 103.551 251.959 103.774C267.892 104.035 268.709 103.955 268.709 102.133C268.709 100.873 267.767 99.985 265.959 99.541C264.446 99.169 262.196 98.21 260.959 97.409C258.736 95.971 258.709 95.685 258.685 73.227C258.658 48.589 257.958 43.326 254.02 38.164C250.214 33.174 245.773 31.693 236.129 32.2C226.925 32.683 221.335 35.245 215.846 41.497C214.121 43.462 212.709 44.534 212.709 43.879C212.709 41.926 207.706 35.969 204.343 33.919C201.99 32.484 199.327 32.007 193.655 32.004C185.009 31.999 177.629 34.93 173.285 40.092L170.814 43.028L170.512 37.843C170.345 34.991 169.759 32.526 169.209 32.366C168.659 32.205 163.372 33.655 157.459 35.588ZM288.959 35.235C280.896 37.636 278.709 38.67 278.709 40.083C278.709 41.435 279.632 41.956 282.436 42.19C288.358 42.683 288.677 44.142 288.694 70.816C288.703 84.727 288.299 94.897 287.693 96.03C287.134 97.075 284.865 98.472 282.652 99.135C279.883 99.965 278.723 100.834 278.931 101.92C279.191 103.272 281.655 103.54 295.972 103.774C312.075 104.038 312.709 103.973 312.709 102.069C312.709 100.604 311.811 99.922 309.245 99.441C307.339 99.083 305.202 98.094 304.495 97.243C303.532 96.085 303.083 87.766 302.709 64.111C302.28 37.027 301.995 32.501 300.709 32.355C299.884 32.261 294.597 33.557 288.959 35.235ZM330.209 35.459C319.73 38.865 317.803 40.749 323.333 42.182C329.156 43.691 329.209 43.953 329.209 71.402V96.5L324.709 98.769C316.7 102.807 318.464 103.473 337.959 103.773C354.811 104.032 355.709 103.95 355.709 102.151C355.709 100.719 354.749 100.102 351.78 99.627C349.619 99.282 347.19 98.338 346.382 97.53C344.175 95.323 343.425 85.619 344.195 69.215C344.97 52.681 346.676 47.103 351.762 44.473C355.996 42.283 358.245 42.653 362.293 46.208L365.948 49.417L368.828 46.193C372.539 42.04 372.707 37.286 369.258 34.046C367.155 32.07 366.032 31.808 361.331 32.198C354.29 32.782 349.36 36.405 346.111 43.383L343.729 48.5L343.719 40.25C343.707 30.49 344.562 30.793 330.209 35.459ZM114.707 76.75C114.706 85.869 112.891 90.336 107.811 93.73C102.588 97.219 97.3236 96.815 93.1086 92.6C90.4836 89.975 89.7086 88.368 89.7086 85.55C89.7086 78.025 93.2236 74.589 104.709 70.882C114.565 67.702 114.709 67.787 114.707 76.75ZM408.376 3.66699C408.009 4.03299 407.709 5.15799 407.709 6.16699C407.709 7.58399 408.478 8 411.098 8C412.962 8 415.55 8.86001 416.848 9.91101L419.209 11.822L419.49 53.261C419.81 100.306 420.087 98.603 411.949 99.695C408.316 100.182 407.709 100.602 407.709 102.632V105H442.674C474.968 105 477.707 104.866 478.529 103.25C479.989 100.379 483.938 80.04 483.339 78.478C482.5 76.291 480.231 77.682 478.41 81.5C476.062 86.426 469.982 92.809 465.277 95.29C461.886 97.078 459.082 97.498 448.428 97.818L435.647 98.202L435.928 55.012L436.209 11.822L438.57 9.91101C439.964 8.78301 442.48 8 444.713 8C448.415 8 450.496 6.08297 449.153 3.90997C448.514 2.87597 409.4 2.64299 408.376 3.66699ZM513.384 34.622C510.093 35.633 506.813 37.795 503.066 41.425C498.034 46.298 497.6 47.07 497.891 50.615C498.145 53.708 498.769 54.753 500.994 55.814C505.937 58.172 508.684 56.348 510.858 49.264C512.064 45.336 513.691 42.373 515.362 41.058C518.793 38.36 524.623 38.358 528.052 41.055C531.263 43.581 533.709 51.314 533.709 58.941V64.518L525.238 66.762C507.688 71.412 499.122 76.375 496.079 83.657C492.993 91.042 495.369 99.549 501.709 103.815C504.741 105.855 506.146 106.12 512.209 105.794C520.004 105.374 524.529 103.558 530.484 98.461L534.469 95.05L535.104 98.227C536.123 103.321 539.335 106 544.423 106C551.598 106 561.679 99.57 558.885 96.776C557.984 95.875 557.429 95.88 556.509 96.8C554.716 98.593 552.249 98.254 550.14 95.924C548.457 94.064 548.2 91.475 547.685 71.174C547.085 47.564 546.398 43.688 541.921 38.645C537.141 33.263 523.888 31.394 513.384 34.622ZM577.709 36.125C572.484 37.775 567.647 39.308 566.959 39.531C564.184 40.433 565.83 42.764 569.677 43.379C572.108 43.768 574.046 44.76 574.677 45.941C575.306 47.115 575.709 57.461 575.709 72.411C575.709 96.765 575.692 96.965 573.459 98.409C572.222 99.21 569.949 100.174 568.409 100.553C566.553 101.01 565.715 101.791 565.923 102.871C566.197 104.298 568.283 104.5 582.723 104.5C598.542 104.5 599.209 104.419 599.209 102.5C599.209 101.124 598.429 100.393 596.709 100.159C590.867 99.362 590.709 98.693 590.709 74.813C590.709 49.118 591.195 47.043 597.921 43.99C604.192 41.144 610.809 41.372 614.603 44.564C616.279 45.975 618.111 48.787 618.674 50.814C619.237 52.841 619.7 63.737 619.703 75.027C619.71 97.665 619.343 99.223 613.745 100.343C611.563 100.779 610.709 101.52 610.709 102.975C610.709 104.927 611.308 105 627.209 105C642.57 105 643.709 104.873 643.709 103.158C643.709 101.877 642.496 100.953 639.725 100.123C637.534 99.467 635.284 98.075 634.725 97.03C634.128 95.914 633.711 86.35 633.713 73.816C633.716 54.204 633.878 52.235 635.733 49.192C640.907 40.706 656.574 39.532 661.26 47.279C663.007 50.166 663.242 52.802 663.527 72.688C663.737 87.317 663.476 95.567 662.761 96.903C662.164 98.018 659.865 99.472 657.652 100.135C654.882 100.965 653.723 101.833 653.932 102.92C654.195 104.284 656.493 104.5 670.709 104.5C684.925 104.5 687.223 104.284 687.486 102.92C687.695 101.835 686.54 100.966 683.791 100.143C681.592 99.484 679.437 98.395 679.001 97.722C678.565 97.05 677.984 85.25 677.709 71.5C677.222 47.157 677.143 46.382 674.709 42C671.291 35.847 665.579 32.992 656.747 33.022C648.53 33.05 642.844 35.499 636.459 41.764C633.199 44.963 631.709 45.899 631.709 44.747C631.709 42.297 625.755 35.917 622.007 34.351C613.07 30.617 599.067 34.103 592.888 41.599L589.709 45.456V39.228C589.709 34.879 589.332 33.019 588.459 33.062C587.772 33.096 582.934 34.474 577.709 36.125ZM717.709 33.935C708.732 36.676 699.709 44.694 699.709 49.931C699.709 57.679 710.618 59.315 712.238 51.81C713.363 46.603 716.298 41.558 719.064 40.078C722.618 38.176 728.682 39.326 731.365 42.412C733.818 45.235 735.709 52.84 735.709 59.887V64.675L727.459 66.734C710.052 71.078 702.13 75.662 698.602 83.429C696.246 88.617 696.264 92.424 698.673 97.729C701.257 103.423 705.641 105.991 712.781 105.996C720.321 106.001 726.691 103.648 732.154 98.84C736.477 95.034 736.709 94.95 736.709 97.193C736.709 99.514 739.071 103.79 741.151 105.235C743.01 106.525 750.795 106.053 754.186 104.444C758.763 102.272 762.383 98.274 761.014 96.905C760.255 96.146 759.329 96.22 757.823 97.161C756.248 98.144 755.252 98.204 753.956 97.395C750.265 95.09 749.739 92.031 749.724 72.799C749.716 62.514 749.225 51.843 748.634 49.086C746.28 38.108 739.369 32.938 727.247 33.086C723.376 33.133 719.084 33.515 717.709 33.935ZM533.709 79.365C533.709 87.348 533.401 89.122 531.621 91.385C528.747 95.038 524.576 97 519.682 97C516.417 97 514.92 96.364 512.512 93.957C509.697 91.142 509.503 90.498 509.926 85.392C510.514 78.312 513.197 75.508 522.378 72.379C533.849 68.471 533.709 68.384 533.709 79.365ZM735.709 79.365C735.709 87.348 735.401 89.122 733.621 91.385C726.258 100.745 711.709 97.916 711.709 87.124C711.709 79.214 715.326 75.507 726.545 71.919C736.016 68.89 735.709 68.64 735.709 79.365Z" fill="black" stroke="black" stroke-width="2" mask="url(#path-1-inside-1_4_12)"/>
</svg>
