<svg width="648" height="550" viewBox="0 0 648 550" fill="none" xmlns="http://www.w3.org/2000/svg">
<path fill-rule="evenodd" clip-rule="evenodd" d="M163.471 0.704318C143.712 3.72661 119.849 15.4914 102.058 30.9832C84.0448 46.6673 72.8083 62.5226 67.0355 80.4026C65.1724 86.1739 65.0008 87.6777 64.9601 98.5797C64.9106 112.087 65.8484 116.437 71.0939 127.026C76.8608 138.67 84.9531 147.337 104.087 162.363C114.595 170.614 119.294 175.626 123.329 182.882C132.729 199.793 131.26 229.49 119.969 250.758C108.714 271.959 87.0114 289.774 66.3958 294.735C49.6617 298.761 36.8321 294.787 31.5933 283.955C29.3633 279.344 28.0098 271.083 28.6325 265.881C30.8366 247.466 45.3223 223.496 60.2258 213.602C66.9379 209.147 70.4038 207.593 77.0915 206.039C80.9398 205.145 82.8584 204.317 83.6291 203.22C84.6557 201.759 84.5418 201.506 81.6883 198.941C79.1847 196.689 77.6773 196.008 73.0288 195.031C65.1377 193.371 55.6845 193.88 47.905 196.382C27.015 203.101 8.03312 223.34 1.93636 245.395C0.351334 251.127 0.00297133 253.96 1.28124e-05 261.125C-0.00442496 271.452 1.14274 276.488 5.33569 284.546C12.0574 297.464 24.1075 306.604 39.3993 310.382C46.7608 312.201 63.3588 312.604 71.4541 311.161C92.5217 307.404 111.159 297.391 129.931 279.742C147.148 263.555 156.457 248.827 160.415 231.51C161.794 225.476 161.982 210.877 160.763 204.496C157.284 186.287 147.651 171.316 130.482 157.432C118.037 147.369 113.305 142.769 108.886 136.443C100.702 124.726 97.3951 114.292 97.9964 102.089C98.2849 96.2517 98.8596 93.6279 101.449 86.3451C107.313 69.8536 115.13 58.1979 129.634 44.3203C140.326 34.0908 147.94 28.5698 158.202 23.6075C169.118 18.3284 176.624 16.229 184.869 16.1493C191.394 16.0864 191.745 16.1626 193.9 18.1103C197.299 21.1829 198.099 25.9188 196.663 34.4725C193.077 55.8299 180.818 79.8748 165.752 95.0981C159.487 101.429 155.817 103.39 151.262 102.842C144.02 101.97 144.169 101.947 142.983 104.173C141.231 107.461 141.641 112.183 144.073 116.726C146.833 121.883 149.404 123.595 154.96 123.975C158.801 124.237 159.917 123.982 164.623 121.765C178.147 115.396 196.193 95.935 205.896 77.2566C215.394 58.9732 218.674 38.1569 214.037 25.5986C207.271 7.27954 186.701 -2.84791 163.471 0.704318ZM520.073 1.28529C516.149 2.65836 513.036 4.96127 509.685 8.96792C503.417 16.4639 498.699 28.3685 498.718 36.6447C498.741 46.8022 504.539 57.5456 511.613 60.5399C515.143 62.0332 515.72 61.7885 515.72 58.7984C515.72 54.0255 520.751 43.4206 526.695 35.6589C528.168 33.7363 532.458 29.0991 536.23 25.3546C543.774 17.8635 544.147 16.9435 541.577 12.1818C538.547 6.56854 531.265 1.44469 525.211 0.666564C523.856 0.492484 521.543 0.770735 520.073 1.28529ZM554.181 26.7207C549.893 28.653 540.798 37.8807 537.792 43.3493C531.09 55.5419 532.558 66.2014 542.073 74.4209L546.17 77.9606L541.035 87.2211C534.407 99.1733 511.078 137.64 504.6 147.297C494.799 161.907 481.191 176.962 478.291 176.402C477.082 176.169 476.917 175.578 477.086 172.092C477.38 166.038 481.473 155.013 492.95 129.376C505.261 101.873 508.627 94.0047 511.016 87.1303C512.73 82.198 512.753 81.8917 511.547 80.139C509.77 77.5586 508.68 76.8126 502.488 73.9462C497.971 71.8545 496.179 71.4063 492.175 71.3644C486.438 71.305 486.25 71.5217 484.274 80.4026C481.95 90.8601 473.675 112.458 466.599 126.545C460.625 138.435 441.194 167.266 431.01 179.348C427.022 184.081 422.252 188.417 421.036 188.417C418.47 188.417 419.615 179.296 423.672 167.435C427.053 157.549 429.191 152.587 440.863 127.54C446.163 116.168 451.025 105.191 451.667 103.146C454.309 94.7367 449.884 86.7234 440.316 82.593C435.459 80.4956 427.723 80.5823 423.3 82.7831C415.956 86.4374 406.631 97.5786 390.583 121.875C381.505 135.618 377.158 141.455 379.817 136.332C381.45 133.185 387.566 115.34 388.901 109.825C390.201 104.46 389.864 100.766 387.708 96.7453C383.921 89.6785 373.334 85.8285 365.836 88.79C359.878 91.1439 349.05 104.248 333.056 128.463C329.312 134.133 325.997 138.918 325.69 139.097C325.384 139.276 326.923 134.399 329.11 128.259C333.023 117.28 334.471 110.045 333.491 106.356C331.781 99.9185 319.631 93.8991 312 95.7099C310.105 96.1594 310.075 96.2559 310.539 100.53C312.218 116.021 294.109 158.252 272.584 189.042C268.715 194.577 263.736 200.869 261.52 203.025C257.67 206.769 257.444 206.883 256.431 205.586C255.101 203.884 255.108 203.186 256.525 196.009C258.685 185.062 263.434 172.695 274.61 148.916C286.438 123.752 287.535 120.948 286.801 117.79C285.75 113.263 279.447 108.767 274.104 108.732C271.3 108.714 267.8 111.265 266.471 114.296C265.962 115.457 265.286 116.407 264.967 116.407C264.648 116.407 263.528 115.022 262.479 113.33C257.122 104.689 243.324 101.334 230.602 105.577C207.41 113.311 180.471 149.546 172.876 183.223C172.189 186.272 171.455 192.551 171.246 197.177C170.605 211.36 174.271 221.437 181.64 225.743C186.25 228.437 192.019 228.586 197.377 226.148C205.054 222.655 216.994 208.516 232.271 184.825L234.688 181.076L234.124 183.872C233.814 185.41 233.593 190.13 233.631 194.359C233.712 203.33 235.245 208.075 239.455 212.392C243.97 217.021 251.702 219.064 257.213 217.083C261.906 215.397 272.483 203.669 278.339 193.66C282.927 185.82 283.144 185.756 282.849 192.322C282.543 199.138 284.005 204.719 286.966 208.045C290.741 212.287 299.796 215.009 301.954 212.552C302.452 211.984 303.51 208.76 304.303 205.386C308.09 189.285 315.012 175.002 332.516 147.169C341.129 133.471 350.856 119.2 357.046 111.177C369.442 95.1114 369.374 98.5679 356.667 130.739C338.963 175.558 334.851 190.989 338.928 197.309C341.937 201.975 351.089 206.295 356.846 205.765C358.982 205.569 359.31 205.242 359.875 202.749C365.285 178.824 376.028 157.422 397.952 126.894C411.775 107.647 423.719 93.5545 425.111 94.8527C425.387 95.1093 424.721 98.0981 423.631 101.494C421.844 107.068 419.782 112.069 408.692 137.73C400.776 156.048 397.763 165.574 396.943 174.875C395.719 188.771 403.874 199.196 415.887 199.089C420.887 199.045 424.191 197.709 428.81 193.866C433.316 190.118 442.66 178.246 448.873 168.375C451.657 163.952 454.108 160.233 454.318 160.11C454.529 159.987 454.581 161.305 454.435 163.04C454.289 164.775 454.571 168.127 455.061 170.488C458.123 185.241 469.982 192.634 482.097 187.342C486.103 185.592 498.102 174.129 504.491 165.948C515.542 151.798 531.235 125.76 552.466 86.3451C554.796 82.019 555.576 81.1297 556.924 81.2632C558.755 81.4443 571.965 86.2151 572.911 87.0373C573.571 87.6105 570.428 93.7404 560.539 111.164C547.033 134.961 538.462 155.414 536.394 168.787C532.878 191.51 543.939 212.05 563.545 219.209C566.889 220.431 569.896 220.861 576.864 221.114C584.993 221.409 586.525 221.261 592.697 219.588C608.988 215.171 623.328 205.78 634.413 192.271C643.544 181.144 647.235 172.526 647.89 160.801C648.278 153.855 647.623 149.228 646.186 148.775C645.774 148.645 644.303 150.983 642.917 153.971C637.172 166.365 622.971 182.869 610.263 191.921C598.889 200.021 584.11 205.222 575.392 204.192C569.799 203.532 566.84 201.511 564.227 196.569C562.37 193.057 562.02 191.471 561.726 185.211C561.226 174.582 563.382 165.662 569.765 151.951C574.749 141.246 582.369 128.268 597.382 104.914C600.087 100.707 602.507 96.4824 602.761 95.5253C603.716 91.9311 598.49 85.574 590.047 80.058C585.743 77.2461 574.978 72.276 565.804 68.8657L557.827 65.9008L559.11 64.0628C564.043 56.9996 570.415 45.9989 571.549 42.5928C572.701 39.1329 572.77 38.0583 572.022 35.3471C569.744 27.0989 561.83 23.2726 554.181 26.7207ZM254.426 120.329C256.779 121.73 257.53 125.143 256.393 129.264C254.202 137.206 242.866 155.892 224.844 181.264C211.679 199.799 204.569 208.291 199.261 211.817C196.161 213.876 196.051 213.896 195.031 212.575C192.588 209.418 194.285 197.85 199.29 183.548C207.528 160.007 232.55 126.109 246.066 120.177C249.88 118.503 251.408 118.531 254.426 120.329ZM457.66 214.063C421.082 217.062 395.257 223.046 348.209 239.421C323.026 248.187 315.092 250.133 304.186 250.22C297.874 250.271 294.278 249.934 290.242 248.912C284.832 247.542 284.799 247.542 283.718 248.912C281.091 252.242 285.003 259.219 291.636 263.032C298.705 267.097 302.302 267.77 316.76 267.737C327.752 267.711 330.705 267.465 336.343 266.106C343.533 264.373 363 257.992 369.842 255.125C386.557 248.122 411.03 240.022 425.757 236.619C460.758 228.529 501.379 228.536 527.512 236.636C539.413 240.324 546.973 244.495 554.365 251.452C560.141 256.888 560.915 257.401 561.576 256.233C563.52 252.801 561.476 244.82 557.313 239.589C546.823 226.403 521.517 217.127 488.354 214.312C480.417 213.638 464.42 213.508 457.66 214.063ZM230.448 232.495C221.145 234.233 212.656 239.203 202.487 248.867C184.394 266.063 166.923 296.174 143.453 350.613C135.992 367.919 135.434 369.134 134.566 369.984C133.698 370.833 120.425 374.125 110.774 375.885C107.926 376.404 101.602 376.797 96.7206 376.756C89.2814 376.695 86.9944 376.4 82.587 374.936C75.7979 372.682 69.9874 369.001 65.6643 364.219C63.7664 362.119 61.8027 360.4 61.3005 360.4C60.7982 360.4 59.6592 361.042 58.7694 361.826C56.7983 363.562 56.572 368.463 58.2547 372.971C61.2317 380.947 70.7226 388.356 81.4746 391.098C92.0846 393.804 106.427 392.987 122.574 388.756C126.217 387.801 129.275 387.094 129.371 387.184C129.796 387.586 105.25 433.808 104.612 433.808C102.32 433.808 80.0811 437.64 74.1619 439.055C58.7968 442.728 50.4967 446.016 41.0472 452.172C16.9264 467.887 12.8947 494.955 33.2323 504.639C46.2579 510.84 65.5408 508.056 82.8451 497.473C95.1777 489.931 105.556 479.381 118.481 461.248C121.838 456.538 124.686 452.684 124.809 452.684C124.933 452.684 128.149 453.292 131.956 454.036C158.131 459.147 190.014 469.506 231.703 486.442C256.531 496.529 260.106 498.129 259.351 498.818C256.939 501.016 217.648 519.752 204.706 524.875C184.381 532.919 167.209 535.203 153.302 531.712C151.472 531.253 146.874 529.322 143.086 527.421C139.297 525.521 135.85 524.169 135.425 524.417C134.472 524.975 135.19 529.696 136.629 532.326C140.503 539.407 150.88 545.884 162.549 548.503C174.123 551.101 197.533 550.206 210.254 546.678C229.335 541.386 247.736 533.39 285.126 514.141L293.062 510.056L296.59 511.722C312.532 519.25 335.554 526.949 354.126 530.964C371.655 534.752 382.066 535.959 400.708 536.364C425.799 536.908 439.382 534.772 454.874 527.846C476 518.402 491.203 501.855 493.11 486.23C493.572 482.446 492.658 479.306 490.943 478.788C490.536 478.665 488.722 480.843 486.91 483.626C482.228 490.826 471.041 501.142 463.292 505.408C450.047 512.698 433.179 516.062 413.282 515.383C394.116 514.728 377.759 512.262 360.816 507.474C351.413 504.817 331.554 497.482 324.386 494.019L320.088 491.942L336.73 484.282C367.354 470.187 387.685 462.091 411.433 454.538C470.502 435.75 509.624 432.738 539.565 444.673C559.398 452.58 565.897 464.434 558.998 480.125C558.617 480.992 558.805 481.348 559.645 481.348C561.115 481.348 564.867 476.614 567.287 471.706C568.911 468.412 569.082 467.261 568.857 461.2C568.634 455.2 568.319 453.847 566.196 449.775C559.363 436.668 536.78 424.859 509.434 420.094C500.347 418.51 472.596 418.286 462.097 419.711C420.08 425.415 393.266 434.046 337.556 459.802C312.17 471.538 293.193 479.952 292.136 479.939C291.105 479.928 291.526 480.064 265.726 471.368C219.662 455.841 187.654 447.12 155.151 441.24C147.829 439.915 139.768 438.616 137.24 438.351L132.641 437.87L134.743 433.917C137.467 428.793 146.19 410.656 154.633 392.56C158.311 384.677 162.128 376.497 163.116 374.383C164.803 370.77 165.354 370.288 172.235 366.418C206.481 347.152 234.019 320.836 250.518 291.61C262.483 270.414 266.141 254.871 261.36 245.535C257.887 238.755 250.529 233.809 241.956 232.494C236.615 231.675 234.837 231.675 230.448 232.495ZM247.338 247.083C248.938 248.308 249.083 248.94 249.067 254.598C249.046 262.46 246.886 268.987 239.833 282.501C225.761 309.464 202.178 335.151 174.194 353.991C171.243 355.978 168.697 357.604 168.536 357.604C168.225 357.604 173.507 346.413 181.735 329.639C188.681 315.479 198.902 297.126 208.601 281.4C222.044 259.599 235.657 245.747 243.64 245.745C244.714 245.745 246.378 246.346 247.338 247.083ZM540.128 276.387C525.108 281.121 513.285 291.435 500.386 311.059C495.284 318.821 490.983 327.888 486.933 339.427C481.685 354.379 470.737 372.123 460.728 381.898C447.768 394.557 453.141 373.454 474.302 328.59C483.883 308.277 484.29 307.233 484.24 303.072C484.134 294.243 475.208 286.153 465.426 286.021C453.802 285.864 447.441 292.383 420.41 332.153C417.822 335.961 415.948 338.448 416.246 337.679C420.506 326.689 424.8 313.721 425.173 310.717C425.435 308.607 425.285 305.658 424.836 304.084C423.089 297.958 414.677 291.886 407.936 291.886C401.557 291.886 397.196 294.861 388.583 305.086C383.06 311.642 371.57 327.952 365.965 337.189C364.029 340.381 362.321 342.875 362.17 342.733C362.02 342.591 362.531 340.765 363.308 338.678C371.626 316.307 372.166 308.37 365.754 302.733C361.707 299.176 352.173 297.052 348.526 298.897C347.259 299.538 347.155 300.154 347.555 304.664C348.308 313.129 344.314 327.679 336.07 346.509C328.838 363.028 313.393 387.037 300.288 402.131C293.111 410.399 290.129 411.342 290.139 405.34C290.144 401.832 292.151 393.063 294.48 386.374C296.406 380.842 301.338 369.608 309.7 351.705C317.532 334.938 320.458 327.419 320.458 324.063C320.458 319.412 316.568 315.25 310.926 313.866C305.189 312.459 301.893 313.894 299.386 318.887C298.296 321.058 296.79 322.08 296.79 320.649C296.79 319.11 290.404 313.445 286.78 311.769C283.062 310.05 282.166 309.923 275.527 310.179C269.276 310.42 267.624 310.763 263.137 312.749C246.569 320.082 226.986 342.032 213.526 368.354C205.423 384.202 201.643 398.158 202.262 409.941C202.969 423.385 210.773 431.71 222.667 431.71C231.897 431.71 243.796 420.715 261.537 395.792C266.284 389.123 267.801 387.402 267.39 389.15C267.085 390.449 266.845 394.972 266.857 399.201C266.88 407.866 267.968 411.121 272.454 415.951C277.705 421.603 286.552 422.952 293.538 419.164C300.289 415.504 309.603 404.511 320.409 387.448C322.555 384.059 324.413 381.385 324.537 381.505C324.662 381.626 323.909 384.083 322.863 386.967C320.26 394.145 320.001 405.362 322.368 408.407C324.927 411.699 330.576 414.263 334.815 414.058L338.448 413.883L341.536 404.794C350.395 378.717 365.646 351.34 386.856 323.438C393.5 314.697 399.929 307.19 401.465 306.377C404.363 304.844 401.942 312.905 393.534 332.785C383.057 357.557 377.237 374.812 375.26 386.967C374.791 389.851 374.262 393.063 374.084 394.106C373.615 396.851 376.62 399.856 382.754 402.777C388.56 405.54 394.366 406.564 395.645 405.049C396.088 404.525 397.026 401.578 397.732 398.502C401.475 382.169 409.842 364.01 422.373 345.02C434.769 326.231 447.493 309.434 453.572 303.831C456.868 300.793 456.924 300.772 457.145 302.517C457.458 304.983 455.385 310.473 447.729 327.46C436.113 353.232 432.271 364.186 431.612 373.414C430.894 383.466 434.04 390.679 440.775 394.421C443.842 396.125 445.129 396.404 449.893 396.402C454.66 396.4 455.932 396.123 458.932 394.425C460.852 393.339 464.156 390.667 466.274 388.485C470.125 384.518 477.718 374.012 481.014 368.091L482.765 364.945L483.258 370.188C484.22 380.411 488.979 388.341 495.823 391.124C502.625 393.89 508.252 391.977 517.077 383.895C523.503 378.01 531.06 368.848 539.368 356.869C542.688 352.082 545.225 348.952 545.005 349.913C541.721 364.275 542.716 377.269 547.871 387.316C551.141 393.689 556.051 398.283 563.057 401.527C568.474 404.035 568.804 404.095 577.11 404.087C584.126 404.08 586.457 403.794 590.423 402.452C603.934 397.882 617.886 385.234 624.126 371.897C628.778 361.954 630.816 344.122 627.897 338.902C627.199 337.652 626.316 336.63 625.935 336.63C625.554 336.63 624.879 337.968 624.433 339.601C621.878 348.988 618.573 355.814 612.045 365.192C602.04 379.563 587.964 389.907 578.295 389.993C572.754 390.042 569.99 388.387 567.615 383.596C565.864 380.063 565.651 378.818 565.686 372.285C565.757 358.987 571.131 344.892 588.284 313.014C594.511 301.442 599.296 291.717 599.293 290.642C599.287 288.052 597.054 285.051 593.415 282.742C586.768 278.521 580.499 279.685 577.11 285.767C575.022 289.514 574.497 289.788 573.878 287.459C573.064 284.393 567.798 279.623 562.915 277.529C556.801 274.907 546.468 274.39 540.128 276.387ZM564.682 292.616C566.744 294.565 566.905 295.056 566.607 298.457C565.713 308.638 545.025 339.049 523.218 362.237C517.49 368.328 508.575 375.803 506.011 376.665C501.105 378.314 502.728 364.737 509.192 350.057C517.882 330.321 530.071 312.41 543.113 300.213C553.254 290.728 560.124 288.308 564.682 292.616ZM289.797 326.461C292.269 328.797 292.151 331.976 289.35 338.611C282.44 354.972 263.455 382.583 244.471 403.883C239.024 409.993 230.535 417.029 228.608 417.029C223.704 417.029 225.608 403.546 232.889 386.692C238.828 372.946 248.672 357.662 260.662 343.573C274.181 327.686 284.612 321.56 289.797 326.461ZM93.1304 451.622C92.8989 452.191 90.6438 455.573 88.1187 459.138C73.1885 480.21 57.8745 491.736 44.7047 491.812C41.3194 491.831 40.4607 491.548 38.6027 489.791C35.8047 487.147 35.7914 484.391 38.5495 478.901C45.2513 465.56 59.731 456.631 81.6402 452.331C91.8701 450.324 93.7036 450.211 93.1304 451.622Z" fill="black"/>
</svg>
